<?xml version="1.0" encoding="UTF-8" standalone="no"?>
<!-- Created with Inkscape (http://www.inkscape.org/) -->

<svg
   xmlns:dc="http://purl.org/dc/elements/1.1/"
   xmlns:cc="http://creativecommons.org/ns#"
   xmlns:rdf="http://www.w3.org/1999/02/22-rdf-syntax-ns#"
   xmlns:svg="http://www.w3.org/2000/svg"
   xmlns="http://www.w3.org/2000/svg"
   xmlns:sodipodi="http://sodipodi.sourceforge.net/DTD/sodipodi-0.dtd"
   xmlns:inkscape="http://www.inkscape.org/namespaces/inkscape"
   width="800"
   height="270"
   viewBox="0 0 800.00001 270"
   id="svg3342"
   version="1.1"
   inkscape:version="0.91 r"
   sodipodi:docname="dru_text.svg">
  <defs
     id="defs3344" />
  <sodipodi:namedview
     id="base"
     pagecolor="#ffffff"
     bordercolor="#666666"
     borderopacity="1.0"
     inkscape:pageopacity="0.0"
     inkscape:pageshadow="2"
     inkscape:zoom="0.98994949"
     inkscape:cx="224.06389"
     inkscape:cy="238.11793"
     inkscape:document-units="px"
     inkscape:current-layer="g4444"
     showgrid="false"
     units="px"
     inkscape:window-width="1680"
     inkscape:window-height="1030"
     inkscape:window-x="1913"
     inkscape:window-y="20"
     inkscape:window-maximized="1" />
  <metadata
     id="metadata3347">
    <rdf:RDF>
      <cc:Work
         rdf:about="">
        <dc:format>image/svg+xml</dc:format>
        <dc:type
           rdf:resource="http://purl.org/dc/dcmitype/StillImage" />
        <dc:title />
      </cc:Work>
    </rdf:RDF>
  </metadata>
  <g
     inkscape:label="Layer 1"
     inkscape:groupmode="layer"
     id="layer1"
     transform="translate(0,-782.36216)">
    <g
       id="g4444">
      <g
         style="fill:none;fill-opacity:1;stroke:#39b5f2;stroke-width:0.35785714;stroke-miterlimit:4;stroke-dasharray:none;stroke-opacity:1"
         transform="matrix(1.3972056,0,0,1.3972056,71.000993,792.74171)"
         id="g9">
        <path
           d="m 479.17,2.062 0,-1.916 8.487,0 0,1.915 -3.104,0 0,8.441 -2.277,0 0,-8.44 -3.106,0 z"
           id="path11"
           style="fill:none;fill-opacity:1;stroke:#39b5f2;stroke-width:0.35785714;stroke-miterlimit:4;stroke-dasharray:none;stroke-opacity:1"
           inkscape:connector-curvature="0" />
        <path
           d="m 492.051,0.146 2.423,7.121 0.029,0 2.29,-7.121 3.207,0 0,10.356 -2.132,0 0,-7.34 -0.029,0 -2.538,7.34 -1.756,0 -2.538,-7.267 -0.028,0 0,7.267 -2.132,0 0,-10.356 3.204,0 z"
           id="path13"
           style="fill:none;fill-opacity:1;stroke:#39b5f2;stroke-width:0.35785714;stroke-miterlimit:4;stroke-dasharray:none;stroke-opacity:1"
           inkscape:connector-curvature="0" />
      </g>
      <g
         transform="translate(25.785439,0)"
         id="g4356"
         style="stroke:#39b5f2;stroke-opacity:1;stroke-width:3;stroke-miterlimit:4;stroke-dasharray:none">
        <path
           inkscape:connector-curvature="0"
           style="fill:none;fill-opacity:1;stroke:#39b5f2;stroke-width:3;stroke-miterlimit:4;stroke-dasharray:none;stroke-opacity:1"
           id="path5-1"
           d="m 392.22595,827.67169 -30.58344,0 0.0503,57.22255 c 0,16.72316 -7.16906,30.2523 -23.89221,30.2523 -16.73014,0 -23.96487,-13.52914 -23.96487,-30.2523 l 0,-57.16666 -30.50379,0 -0.008,57.16666 c 0,33.04531 21.24172,59.82835 54.29262,59.82835 33.04112,0 54.6,-26.78304 54.6,-59.82835 l 0.01,-57.22255 z" />
        <rect
           style="fill:none;fill-opacity:1;stroke:#39b5f2;stroke-width:3;stroke-miterlimit:4;stroke-dasharray:none;stroke-opacity:1"
           id="rect7"
           height="148.96446"
           width="30.432535"
           y="792.80444"
           x="667.99658" />
        <path
           inkscape:connector-curvature="0"
           style="fill:none;fill-opacity:1;stroke:#39b5f2;stroke-width:3;stroke-miterlimit:4;stroke-dasharray:none;stroke-opacity:1"
           id="path15-5"
           d="m 258.45469,826.42678 c -26.23254,-6.05409 -42.78104,20.00659 -43.46846,21.40379 -0.33813,0.68603 -0.3507,1.08563 -1.51318,1.05489 -0.95988,-0.0196 -1.07026,-1.05489 -1.07026,-1.05489 l -3.25549,-19.93533 -27.25948,0 0,113.77446 30.55829,0 0,-61.58324 c 0,-5.03273 13.55289,-29.16247 39.80918,-22.9505 13.27904,3.14092 18.91118,8.77585 18.91118,8.77585 0,0 0,-21.96128 0,-34.65908 -4.91398,-2.56248 -8.28543,-3.80459 -12.71178,-4.82595 z" />
        <path
           inkscape:connector-curvature="0"
           style="fill:none;fill-opacity:1;stroke:#39b5f2;stroke-width:3;stroke-miterlimit:4;stroke-dasharray:none;stroke-opacity:1"
           id="path17"
           d="m 433.69501,979.14415 0,-40.93813 c 0.003,0 0.007,0.004 0.01,0.007 l 0.004,-15.33014 c 0,0 0.0489,-1.22675 1.15409,-1.24212 0.98643,-0.0112 1.20579,0.64272 1.44611,1.24212 2.31657,5.76487 15.06048,27.73034 43.33853,20.84072 25.31457,-7.13134 43.88203,-30.37665 43.88203,-57.98404 0,-33.26047 -26.97026,-60.23493 -60.23912,-60.23493 -33.26886,0 -60.23773,26.97446 -60.23773,60.23493 0,0 0,82.34432 0,93.4032 l 30.64212,0 z m 29.62076,-123.88743 c 16.84331,0 30.49401,13.65349 30.49401,30.48423 0,16.84471 -13.6507,30.4996 -30.49401,30.4996 -16.84052,0 -30.48703,-13.65349 -30.48703,-30.4996 0.001,-16.83074 13.64791,-30.48423 30.48703,-30.48423 z" />
        <path
           sodipodi:nodetypes="ccssscccccsssss"
           inkscape:connector-curvature="0"
           style="fill:none;fill-opacity:1;stroke:#39b5f2;stroke-width:3;stroke-miterlimit:4;stroke-dasharray:none;stroke-opacity:1"
           id="path19"
           d="m 625.0004,941.72139 30.64212,0 0,-55.98044 c 0,-33.26048 -26.96607,-60.23493 -60.23633,-60.23493 -33.27026,0 -60.24052,26.97445 -60.24052,60.23493 0,27.60599 18.56886,50.8513 43.88343,57.98404 28.27944,6.88962 41.01777,-15.07585 43.33853,-20.84072 0.24032,-0.59941 0.45688,-1.2519 1.4461,-1.24212 1.10519,0.0154 1.1513,1.24212 1.1513,1.24212 z m 0.86767,-55.98044 c 0,16.84471 -13.6521,30.4996 -30.48843,30.4996 -16.84052,0 -30.49401,-13.65349 -30.49401,-30.4996 0,-16.83074 13.65349,-30.48423 30.49401,-30.48423 16.83773,0 30.48843,13.65349 30.48843,30.48423 z" />
        <g
           id="g21"
           transform="matrix(1.3972056,0,0,1.3972056,51.397203,792.74155)"
           style="fill:none;fill-opacity:1;stroke:#39b5f2;stroke-width:2.14714284;stroke-miterlimit:4;stroke-dasharray:none;stroke-opacity:1">
          <path
             inkscape:connector-curvature="0"
             style="fill:none;fill-opacity:1;stroke:#39b5f2;stroke-width:2.14714284;stroke-miterlimit:4;stroke-dasharray:none;stroke-opacity:1"
             id="path23"
             d="M 24.879,106.457 0,106.457 0,0 26.695,0 c 32.325,0 56.841,5.931 56.841,53.229 0,46.84 -25.969,53.228 -58.657,53.228 z m 5.94,-88.004 -8.795,0 0,69.533 9.032,0.231 c 18.522,0 30.452,-1.686 30.452,-34.989 0,-31.937 -10.532,-34.775 -30.689,-34.775 z" />
        </g>
      </g>
      <g
         transform="translate(25.785439,0)"
         id="text3369"
         style="font-style:normal;font-weight:normal;font-size:41.4240036px;line-height:125%;font-family:Sans;letter-spacing:0px;word-spacing:0px;fill:none;fill-opacity:1;stroke:#c6c6c6;stroke-width:2;stroke-linecap:butt;stroke-linejoin:miter;stroke-miterlimit:4;stroke-dasharray:none;stroke-opacity:1">
        <path
           id="path4300"
           style="font-style:normal;font-variant:normal;font-weight:bold;font-stretch:normal;font-family:roboto;-inkscape-font-specification:'roboto Bold';fill:none;stroke:#c6c6c6;stroke-width:2;stroke-miterlimit:4;stroke-dasharray:none;stroke-opacity:1"
           d="m 55.906161,1025.621 0,10.6797 -5.906157,0 0,-29.4499 11.731407,0 q 5.178001,0 8.029946,2.5485 2.872172,2.5486 2.872172,6.8568 0,4.3083 -2.872172,6.8366 -2.851945,2.5283 -8.029946,2.5283 l -5.82525,0 z m 0,-4.5509 5.82525,0 q 2.528321,0 3.762141,-1.3148 1.254047,-1.3349 1.254047,-3.4587 0,-2.1643 -1.254047,-3.5194 -1.23382,-1.3754 -3.762141,-1.3754 l -5.82525,0 0,9.6683 z"
           inkscape:connector-curvature="0" />
        <path
           id="path4302"
           style="font-style:normal;font-variant:normal;font-weight:bold;font-stretch:normal;font-family:roboto;-inkscape-font-specification:'roboto Bold';fill:none;stroke:#c6c6c6;stroke-width:2;stroke-miterlimit:4;stroke-dasharray:none;stroke-opacity:1"
           d="m 87.398921,1019.9374 0.505664,1.6585 0.06068,0 5.582532,-14.7451 6.250008,0 -10.052602,23.8673 q -1.314727,2.9531 -3.013758,4.4903 -1.678805,1.517 -4.975735,1.517 -0.525891,0 -1.173141,-0.04 -0.627023,-0.02 -0.950648,-0.061 l -0.04045,-4.5105 q 0.222492,0.04 0.748382,0.061 0.546118,0.02 0.849516,0.02 1.658578,0 2.427188,-0.6877 0.768609,-0.6877 1.314726,-2.1643 l 0.444985,-1.1124 -10.376228,-21.3795 6.371368,0 6.027516,13.0866 z"
           inkscape:connector-curvature="0" />
        <path
           id="path4304"
           style="font-style:normal;font-variant:normal;font-weight:bold;font-stretch:normal;font-family:roboto;-inkscape-font-specification:'roboto Bold';fill:none;stroke:#c6c6c6;stroke-width:2;stroke-miterlimit:4;stroke-dasharray:none;stroke-opacity:1"
           d="m 125.20237,1026.5717 q -0.36408,4.8746 -3.33738,7.5243 -2.95308,2.6294 -8.33335,2.6294 -5.38026,0 -8.49515,-3.3374 -3.09467,-3.3373 -3.09467,-8.8794 l 0,-5.8455 q 0,-5.4814 3.15535,-8.8592 3.15534,-3.3779 8.43447,-3.3779 5.46118,0 8.33335,2.6497 2.87217,2.6497 3.35761,7.6456 l -5.88593,0 q -0.26295,-2.8924 -1.55745,-4.3082 -1.2945,-1.4361 -4.24758,-1.4361 -2.71036,0 -4.20712,2.1238 -1.49677,2.1036 -1.49677,5.5218 l 0,5.886 q 0,3.4992 1.43609,5.6027 1.45631,2.0834 4.2678,2.0834 2.8115,0 4.16668,-1.3754 1.35518,-1.3754 1.5979,-4.2476 l 5.90615,0 z"
           inkscape:connector-curvature="0" />
        <path
           id="path4306"
           style="font-style:normal;font-variant:normal;font-weight:bold;font-stretch:normal;font-family:roboto;-inkscape-font-specification:'roboto Bold';fill:none;stroke:#c6c6c6;stroke-width:2;stroke-miterlimit:4;stroke-dasharray:none;stroke-opacity:1"
           d="m 151.82053,1026.5717 q -0.36408,4.8746 -3.33738,7.5243 -2.95308,2.6294 -8.33335,2.6294 -5.38027,0 -8.49516,-3.3374 -3.09466,-3.3373 -3.09466,-8.8794 l 0,-5.8455 q 0,-5.4814 3.15534,-8.8592 3.15535,-3.3779 8.43448,-3.3779 5.46117,0 8.33335,2.6497 2.87217,2.6497 3.3576,7.6456 l -5.88593,0 q -0.26294,-2.8924 -1.55744,-4.3082 -1.2945,-1.4361 -4.24758,-1.4361 -2.71036,0 -4.20712,2.1238 -1.49677,2.1036 -1.49677,5.5218 l 0,5.886 q 0,3.4992 1.43609,5.6027 1.45631,2.0834 4.2678,2.0834 2.81149,0 4.16667,-1.3754 1.35518,-1.3754 1.5979,-4.2476 l 5.90616,0 z"
           inkscape:connector-curvature="0" />
        <path
           id="path4308"
           style="font-style:normal;font-variant:normal;font-weight:bold;font-stretch:normal;font-family:roboto;-inkscape-font-specification:'roboto Bold';fill:none;stroke:#c6c6c6;stroke-width:2;stroke-miterlimit:4;stroke-dasharray:none;stroke-opacity:1"
           d="m 165.08915,1024.0029 -3.2767,0 0,12.2978 -5.90616,0 0,-29.4499 5.90616,0 0,12.0348 2.56877,0 7.80746,-12.0348 7.22088,0 -9.70875,13.7743 10.49759,15.6756 -7.20066,0 -7.90859,-12.2978 z"
           inkscape:connector-curvature="0" />
        <path
           id="path4310"
           style="font-style:normal;font-variant:normal;font-weight:bold;font-stretch:normal;font-family:roboto;-inkscape-font-specification:'roboto Bold';fill:none;stroke:#c6c6c6;stroke-width:2;stroke-miterlimit:4;stroke-dasharray:none;stroke-opacity:1"
           d="m 205.88614,1024.2254 q 0,5.4814 -3.37784,9.0008 -3.37783,3.4992 -8.96036,3.4992 -5.54208,0 -8.89969,-3.4992 -3.33739,-3.5194 -3.33739,-9.0008 l 0,-5.2994 q 0,-5.4611 3.33739,-8.9806 3.33738,-3.5194 8.87946,-3.5194 5.58253,0 8.96037,3.5194 3.39806,3.5195 3.39806,8.9806 l 0,5.2994 z m -5.90616,-5.3398 q 0,-3.4588 -1.69903,-5.6432 -1.69903,-2.2047 -4.75324,-2.2047 -3.05421,0 -4.69256,2.1844 -1.63836,2.1845 -1.63836,5.6635 l 0,5.3398 q 0,3.5194 1.63836,5.7241 1.65857,2.1845 4.71279,2.1845 3.07443,0 4.75324,-2.1845 1.6788,-2.2047 1.6788,-5.7241 l 0,-5.3398 z"
           inkscape:connector-curvature="0" />
        <path
           id="path4312"
           style="font-style:normal;font-variant:normal;font-weight:bold;font-stretch:normal;font-family:roboto;-inkscape-font-specification:'roboto Bold';fill:none;stroke:#c6c6c6;stroke-width:2;stroke-miterlimit:4;stroke-dasharray:none;stroke-opacity:1"
           d="m 213.95653,1036.3007 -6.37137,0 6.37137,-12.6214 q -2.36651,-1.2541 -3.51942,-3.1554 -1.15291,-1.9013 -1.15291,-4.6318 0,-4.4297 2.81149,-6.7355 2.83172,-2.3058 8.02994,-2.3058 l 10.19419,0 0,29.4499 -5.90615,0 0,-10.801 -5.05665,0 -5.40049,10.801 z m 10.45714,-24.8989 -4.28804,0 q -2.54854,0 -3.74191,1.2338 -1.19337,1.2338 -1.19337,3.6003 0,2.5283 1.2136,3.7419 1.21359,1.2136 3.72168,1.2136 l 4.28804,0 0,-9.7896 z"
           inkscape:connector-curvature="0" />
        <path
           id="path4314"
           style="font-style:normal;font-variant:normal;font-weight:bold;font-stretch:normal;font-family:roboto;-inkscape-font-specification:'roboto Bold';fill:none;stroke:#c6c6c6;stroke-width:2;stroke-miterlimit:4;stroke-dasharray:none;stroke-opacity:1"
           d="m 245.50997,1019.0676 q 2.40696,0 3.4992,-1.072 1.11246,-1.072 1.11246,-3.0744 0,-1.7395 -1.23382,-2.8317 -1.23382,-1.1125 -3.70146,-1.1125 -2.02266,0 -3.33738,1.0518 -1.2945,1.0315 -1.2945,2.7306 l -5.88593,0 q 0,-3.8431 2.99353,-6.0882 3.01375,-2.2452 7.52428,-2.2452 5.11732,0 7.96927,2.144 2.87217,2.1441 2.87217,6.2703 0,2.0631 -1.19337,3.7217 -1.19337,1.6383 -3.35761,2.6092 2.46764,0.89 3.72169,2.6092 1.27427,1.699 1.27427,4.2678 0,4.1465 -3.07444,6.4118 -3.07443,2.2654 -8.21198,2.2654 -4.55098,0 -7.74678,-2.144 -3.19579,-2.144 -3.19579,-6.4523 l 5.90615,0 q 0,1.7597 1.39564,2.9127 1.39563,1.1529 3.64078,1.1529 2.52832,0 3.94418,-1.1529 1.43608,-1.1732 1.43608,-3.0543 0,-2.3665 -1.25404,-3.4182 -1.23382,-1.0721 -3.8026,-1.0721 l -3.60032,0 0,-4.4296 3.60032,0 z"
           inkscape:connector-curvature="0" />
        <path
           id="path4316"
           style="font-style:normal;font-variant:normal;font-weight:bold;font-stretch:normal;font-family:roboto;-inkscape-font-specification:'roboto Bold';fill:none;stroke:#c6c6c6;stroke-width:2;stroke-miterlimit:4;stroke-dasharray:none;stroke-opacity:1"
           d="m 266.99059,1017.7529 5.05664,0 q 5.21845,0 8.13108,2.4676 2.93285,2.4475 2.93285,6.695 0,4.3083 -2.93285,6.8568 -2.93285,2.5284 -8.13108,2.5284 l -10.9628,0 0,-29.4499 5.90616,0 0,10.9021 z m 24.67641,18.5478 -5.90616,0 0,-29.4499 5.90616,0 0,29.4499 z m -24.67641,-13.9968 0,9.466 5.05664,0 q 2.54855,0 3.86327,-1.3552 1.31473,-1.3754 1.31473,-3.5396 0,-2.0631 -1.31473,-3.3172 -1.2945,-1.254 -3.86327,-1.254 l -5.05664,0 z"
           inkscape:connector-curvature="0" />
        <path
           id="path4318"
           style="font-style:normal;font-variant:normal;font-weight:bold;font-stretch:normal;font-family:roboto;-inkscape-font-specification:'roboto Bold';fill:none;stroke:#c6c6c6;stroke-width:2;stroke-miterlimit:4;stroke-dasharray:none;stroke-opacity:1"
           d="m 320.46962,1006.8508 0,29.4499 -5.92639,0 0,-11.3471 q -1.35518,0.3236 -2.99353,0.5056 -1.63835,0.1618 -2.9733,0.1618 -5.52186,0 -8.43448,-2.2856 -2.91263,-2.3058 -2.91263,-7.322 l 0,-9.1626 5.90616,0 0,9.1626 q 0,2.9126 1.25405,3.9846 1.27427,1.0721 4.1869,1.0721 1.27427,0 2.93285,-0.1619 1.6788,-0.182 3.03398,-0.5056 l 0,-13.5518 5.92639,0 z"
           inkscape:connector-curvature="0" />
        <path
           id="path4320"
           style="font-style:normal;font-variant:normal;font-weight:bold;font-stretch:normal;font-family:roboto;-inkscape-font-specification:'roboto Bold';fill:none;stroke:#c6c6c6;stroke-width:2;stroke-miterlimit:4;stroke-dasharray:none;stroke-opacity:1"
           d="m 349.77792,1036.3007 -5.88593,0 0,-12.2371 -12.01458,0 0,12.2371 -5.90615,0 0,-29.4499 5.90615,0 0,12.6618 12.01458,0 0,-12.6618 5.88593,0 0,29.4499 z"
           inkscape:connector-curvature="0" />
        <path
           id="path4322"
           style="font-style:normal;font-variant:normal;font-weight:bold;font-stretch:normal;font-family:roboto;-inkscape-font-specification:'roboto Bold';fill:none;stroke:#c6c6c6;stroke-width:2;stroke-miterlimit:4;stroke-dasharray:none;stroke-opacity:1"
           d="m 379.10643,1024.2254 q 0,5.4814 -3.37784,9.0008 -3.37783,3.4992 -8.96036,3.4992 -5.54208,0 -8.89969,-3.4992 -3.33738,-3.5194 -3.33738,-9.0008 l 0,-5.2994 q 0,-5.4611 3.33738,-8.9806 3.33738,-3.5194 8.87946,-3.5194 5.58253,0 8.96037,3.5194 3.39806,3.5195 3.39806,8.9806 l 0,5.2994 z m -5.90616,-5.3398 q 0,-3.4588 -1.69903,-5.6432 -1.69903,-2.2047 -4.75324,-2.2047 -3.05421,0 -4.69256,2.1844 -1.63835,2.1845 -1.63835,5.6635 l 0,5.3398 q 0,3.5194 1.63835,5.7241 1.65858,2.1845 4.71279,2.1845 3.07443,0 4.75324,-2.1845 1.6788,-2.2047 1.6788,-5.7241 l 0,-5.3398 z"
           inkscape:connector-curvature="0" />
        <path
           id="path4324"
           style="font-style:normal;font-variant:normal;font-weight:bold;font-stretch:normal;font-family:roboto;-inkscape-font-specification:'roboto Bold';fill:none;stroke:#c6c6c6;stroke-width:2;stroke-miterlimit:4;stroke-dasharray:none;stroke-opacity:1"
           d="m 402.0029,1023.3557 -12.19662,0 0,8.4142 14.25972,0 0,4.5308 -20.16588,0 0,-29.4499 20.12543,0 0,4.551 -14.21927,0 0,7.4029 12.19662,0 0,4.551 z"
           inkscape:connector-curvature="0" />
        <path
           id="path4326"
           style="font-style:normal;font-variant:normal;font-weight:bold;font-stretch:normal;font-family:roboto;-inkscape-font-specification:'roboto Bold';fill:none;stroke:#c6c6c6;stroke-width:2;stroke-miterlimit:4;stroke-dasharray:none;stroke-opacity:1"
           d="m 440.57497,1026.5717 q -0.36408,4.8746 -3.33738,7.5243 -2.95308,2.6294 -8.33335,2.6294 -5.38027,0 -8.49516,-3.3374 -3.09466,-3.3373 -3.09466,-8.8794 l 0,-5.8455 q 0,-5.4814 3.15534,-8.8592 3.15535,-3.3779 8.43448,-3.3779 5.46117,0 8.33335,2.6497 2.87217,2.6497 3.35761,7.6456 l -5.88594,0 q -0.26294,-2.8924 -1.55744,-4.3082 -1.2945,-1.4361 -4.24758,-1.4361 -2.71036,0 -4.20712,2.1238 -1.49677,2.1036 -1.49677,5.5218 l 0,5.886 q 0,3.4992 1.43609,5.6027 1.45631,2.0834 4.2678,2.0834 2.81149,0 4.16667,-1.3754 1.35518,-1.3754 1.5979,-4.2476 l 5.90616,0 z"
           inkscape:connector-curvature="0" />
        <path
           id="path4328"
           style="font-style:normal;font-variant:normal;font-weight:bold;font-stretch:normal;font-family:roboto;-inkscape-font-specification:'roboto Bold';fill:none;stroke:#c6c6c6;stroke-width:2;stroke-miterlimit:4;stroke-dasharray:none;stroke-opacity:1"
           d="m 468.50786,1024.2254 q 0,5.4814 -3.37784,9.0008 -3.37783,3.4992 -8.96036,3.4992 -5.54208,0 -8.89969,-3.4992 -3.33739,-3.5194 -3.33739,-9.0008 l 0,-5.2994 q 0,-5.4611 3.33739,-8.9806 3.33738,-3.5194 8.87946,-3.5194 5.58253,0 8.96037,3.5194 3.39806,3.5195 3.39806,8.9806 l 0,5.2994 z m -5.90616,-5.3398 q 0,-3.4588 -1.69903,-5.6432 -1.69903,-2.2047 -4.75324,-2.2047 -3.05421,0 -4.69256,2.1844 -1.63836,2.1845 -1.63836,5.6635 l 0,5.3398 q 0,3.5194 1.63836,5.7241 1.65857,2.1845 4.71279,2.1845 3.07443,0 4.75324,-2.1845 1.6788,-2.2047 1.6788,-5.7241 l 0,-5.3398 z"
           inkscape:connector-curvature="0" />
        <path
           id="path4330"
           style="font-style:normal;font-variant:normal;font-weight:bold;font-stretch:normal;font-family:roboto;-inkscape-font-specification:'roboto Bold';fill:none;stroke:#c6c6c6;stroke-width:2;stroke-miterlimit:4;stroke-dasharray:none;stroke-opacity:1"
           d="m 497.14867,1024.2254 q 0,5.4814 -3.37784,9.0008 -3.37783,3.4992 -8.96037,3.4992 -5.54208,0 -8.89968,-3.4992 -3.33739,-3.5194 -3.33739,-9.0008 l 0,-5.2994 q 0,-5.4611 3.33739,-8.9806 3.33738,-3.5194 8.87946,-3.5194 5.58253,0 8.96036,3.5194 3.39807,3.5195 3.39807,8.9806 l 0,5.2994 z m -5.90616,-5.3398 q 0,-3.4588 -1.69903,-5.6432 -1.69903,-2.2047 -4.75324,-2.2047 -3.05421,0 -4.69257,2.1844 -1.63835,2.1845 -1.63835,5.6635 l 0,5.3398 q 0,3.5194 1.63835,5.7241 1.65858,2.1845 4.71279,2.1845 3.07444,0 4.75325,-2.1845 1.6788,-2.2047 1.6788,-5.7241 l 0,-5.3398 z"
           inkscape:connector-curvature="0" />
        <path
           id="path4332"
           style="font-style:normal;font-variant:normal;font-weight:bold;font-stretch:normal;font-family:roboto;-inkscape-font-specification:'roboto Bold';fill:none;stroke:#c6c6c6;stroke-width:2;stroke-miterlimit:4;stroke-dasharray:none;stroke-opacity:1"
           d="m 521.05646,1011.4018 -13.28885,0 0,6.3511 5.05664,0 q 5.21845,0 8.13108,2.4676 2.93285,2.4475 2.93285,6.695 0,4.3083 -2.93285,6.8568 -2.93286,2.5284 -8.13108,2.5284 l -10.9628,0 0,-29.4499 19.19501,0 0,4.551 z m -13.28885,10.9021 0,9.466 5.05664,0 q 2.54854,0 3.86327,-1.3552 1.31473,-1.3754 1.31473,-3.5396 0,-2.0631 -1.31473,-3.3172 -1.2945,-1.254 -3.86327,-1.254 l -5.05664,0 z"
           inkscape:connector-curvature="0" />
        <path
           id="path4334"
           style="font-style:normal;font-variant:normal;font-weight:bold;font-stretch:normal;font-family:roboto;-inkscape-font-specification:'roboto Bold';fill:none;stroke:#c6c6c6;stroke-width:2;stroke-miterlimit:4;stroke-dasharray:none;stroke-opacity:1"
           d="m 533.75875,1006.8508 0,24.9191 8.33334,0 0,-24.9191 5.88593,0 0,24.9191 8.25244,0 0,-24.9191 5.90616,0 0,24.9191 4.08577,0 -0.40454,11.6101 -5.48139,0 0,-7.0793 -32.48387,0 0,-29.4499 5.90616,0 z"
           inkscape:connector-curvature="0" />
        <path
           id="path4336"
           style="font-style:normal;font-variant:normal;font-weight:bold;font-stretch:normal;font-family:roboto;-inkscape-font-specification:'roboto Bold';fill:none;stroke:#c6c6c6;stroke-width:2;stroke-miterlimit:4;stroke-dasharray:none;stroke-opacity:1"
           d="m 588.41095,1023.3557 -12.19662,0 0,8.4142 14.25973,0 0,4.5308 -20.16589,0 0,-29.4499 20.12543,0 0,4.551 -14.21927,0 0,7.4029 12.19662,0 0,4.551 z"
           inkscape:connector-curvature="0" />
        <path
           id="path4338"
           style="font-style:normal;font-variant:normal;font-weight:bold;font-stretch:normal;font-family:roboto;-inkscape-font-specification:'roboto Bold';fill:none;stroke:#c6c6c6;stroke-width:2;stroke-miterlimit:4;stroke-dasharray:none;stroke-opacity:1"
           d="m 616.627,1026.5717 q -0.36408,4.8746 -3.33738,7.5243 -2.95308,2.6294 -8.33335,2.6294 -5.38026,0 -8.49515,-3.3374 -3.09467,-3.3373 -3.09467,-8.8794 l 0,-5.8455 q 0,-5.4814 3.15535,-8.8592 3.15534,-3.3779 8.43447,-3.3779 5.46118,0 8.33335,2.6497 2.87217,2.6497 3.35761,7.6456 l -5.88593,0 q -0.26295,-2.8924 -1.55745,-4.3082 -1.2945,-1.4361 -4.24758,-1.4361 -2.71036,0 -4.20712,2.1238 -1.49677,2.1036 -1.49677,5.5218 l 0,5.886 q 0,3.4992 1.43609,5.6027 1.45631,2.0834 4.2678,2.0834 2.8115,0 4.16668,-1.3754 1.35518,-1.3754 1.59789,-4.2476 l 5.90616,0 z"
           inkscape:connector-curvature="0" />
        <path
           id="path4340"
           style="font-style:normal;font-variant:normal;font-weight:bold;font-stretch:normal;font-family:roboto;-inkscape-font-specification:'roboto Bold';fill:none;stroke:#c6c6c6;stroke-width:2;stroke-miterlimit:4;stroke-dasharray:none;stroke-opacity:1"
           d="m 642.77995,1011.4018 -9.30422,0 0,24.8989 -5.90615,0 0,-24.8989 -9.26377,0 0,-4.551 24.47414,0 0,4.551 z"
           inkscape:connector-curvature="0" />
        <path
           id="path4342"
           style="font-style:normal;font-variant:normal;font-weight:bold;font-stretch:normal;font-family:roboto;-inkscape-font-specification:'roboto Bold';fill:none;stroke:#c6c6c6;stroke-width:2;stroke-miterlimit:4;stroke-dasharray:none;stroke-opacity:1"
           d="m 646.44092,1036.3007 0,-29.4499 10.11328,0 q 5.27914,0 8.0704,1.9822 2.79127,1.9822 2.79127,6.0882 0,2.0833 -1.05178,3.661 -1.03156,1.5777 -3.07444,2.3665 l 0,0.061 q 2.62945,0.5663 3.90373,2.4069 1.2945,1.8204 1.2945,4.3083 0,4.3083 -2.69014,6.4523 -2.6699,2.1238 -7.86813,2.1238 l -11.48869,0 z m 5.90616,-13.0259 0,8.4951 5.58253,0 q 2.34628,0 3.4992,-1.072 1.17314,-1.072 1.17314,-3.0138 0,-2.144 -1.03156,-3.2767 -1.01133,-1.1326 -3.2767,-1.1326 l -5.94661,0 z m 0,-4.0858 4.40939,0 q 2.38673,0 3.55988,-0.9507 1.19336,-0.9506 1.19336,-2.8519 0,-2.1036 -1.19336,-3.034 -1.19337,-0.9506 -3.76215,-0.9506 l -4.20712,0 0,7.7872 z"
           inkscape:connector-curvature="0" />
        <path
           id="path4344"
           style="font-style:normal;font-variant:normal;font-weight:bold;font-stretch:normal;font-family:roboto;-inkscape-font-specification:'roboto Bold';fill:none;stroke:#c6c6c6;stroke-width:2;stroke-miterlimit:4;stroke-dasharray:none;stroke-opacity:1"
           d="m 696.90621,1024.2254 q 0,5.4814 -3.37784,9.0008 -3.37784,3.4992 -8.96037,3.4992 -5.54208,0 -8.89969,-3.4992 -3.33738,-3.5194 -3.33738,-9.0008 l 0,-5.2994 q 0,-5.4611 3.33738,-8.9806 3.33739,-3.5194 8.87946,-3.5194 5.58254,0 8.96037,3.5194 3.39807,3.5195 3.39807,8.9806 l 0,5.2994 z m -5.90616,-5.3398 q 0,-3.4588 -1.69903,-5.6432 -1.69903,-2.2047 -4.75325,-2.2047 -3.05421,0 -4.69256,2.1844 -1.63835,2.1845 -1.63835,5.6635 l 0,5.3398 q 0,3.5194 1.63835,5.7241 1.65858,2.1845 4.71279,2.1845 3.07444,0 4.75324,-2.1845 1.67881,-2.2047 1.67881,-5.7241 l 0,-5.3398 z"
           inkscape:connector-curvature="0" />
      </g>
    </g>
  </g>
</svg>
